<mxfile host="app.diagrams.net" modified="2024-03-06T17:08:02.664Z" agent="Mozilla/5.0 (X11; Ubuntu; Linux x86_64; rv:123.0) Gecko/20100101 Firefox/123.0" etag="qEMQ4XkzGqTVmiH7E3ar" version="24.0.1" type="github" pages="4">
  <diagram id="C5RBs43oDa-KdzZeNtuy" name="plan()">
    <mxGraphModel dx="1766" dy="1697" grid="1" gridSize="10" guides="1" tooltips="1" connect="1" arrows="1" fold="1" page="1" pageScale="1" pageWidth="827" pageHeight="1169" math="0" shadow="0">
      <root>
        <mxCell id="WIyWlLk6GJQsqaUBKTNV-0" />
        <mxCell id="WIyWlLk6GJQsqaUBKTNV-1" parent="WIyWlLk6GJQsqaUBKTNV-0" />
        <mxCell id="kHNyVM9_loPENXg7Zpsd-1" value="Method: plan()" style="swimlane;whiteSpace=wrap;html=1;" parent="WIyWlLk6GJQsqaUBKTNV-1" vertex="1">
          <mxGeometry x="-810" y="-1140" width="570" height="540" as="geometry" />
        </mxCell>
        <mxCell id="kHNyVM9_loPENXg7Zpsd-5" value="" style="edgeStyle=orthogonalEdgeStyle;rounded=0;orthogonalLoop=1;jettySize=auto;html=1;entryX=0.5;entryY=0;entryDx=0;entryDy=0;" parent="kHNyVM9_loPENXg7Zpsd-1" source="kHNyVM9_loPENXg7Zpsd-2" target="kHNyVM9_loPENXg7Zpsd-6" edge="1">
          <mxGeometry relative="1" as="geometry">
            <mxPoint x="165" y="210" as="targetPoint" />
          </mxGeometry>
        </mxCell>
        <mxCell id="kHNyVM9_loPENXg7Zpsd-2" value="&lt;div&gt;path = [ ]&lt;br&gt;&lt;/div&gt;&lt;div&gt;&lt;font color=&quot;#0066cc&quot;&gt;/*Set current position start*/&lt;/font&gt;&lt;/div&gt;&lt;div&gt;curr_pos = self.start&lt;/div&gt;&lt;div&gt;&lt;font color=&quot;#0066cc&quot;&gt;/*Add first point to the path*/&lt;/font&gt;&lt;/div&gt;&lt;div&gt;path.append(current_position)&lt;br&gt;&lt;/div&gt;" style="rounded=0;whiteSpace=wrap;html=1;" parent="kHNyVM9_loPENXg7Zpsd-1" vertex="1">
          <mxGeometry x="10" y="30" width="190" height="80" as="geometry" />
        </mxCell>
        <mxCell id="kHNyVM9_loPENXg7Zpsd-8" value="" style="edgeStyle=orthogonalEdgeStyle;rounded=0;orthogonalLoop=1;jettySize=auto;html=1;entryX=0.5;entryY=0;entryDx=0;entryDy=0;exitX=0.5;exitY=1;exitDx=0;exitDy=0;" parent="kHNyVM9_loPENXg7Zpsd-1" source="kHNyVM9_loPENXg7Zpsd-6" target="kHNyVM9_loPENXg7Zpsd-7" edge="1">
          <mxGeometry relative="1" as="geometry">
            <mxPoint x="124.8" y="270" as="sourcePoint" />
            <mxPoint x="124.8" y="330" as="targetPoint" />
          </mxGeometry>
        </mxCell>
        <mxCell id="kHNyVM9_loPENXg7Zpsd-11" value="" style="edgeStyle=orthogonalEdgeStyle;rounded=0;orthogonalLoop=1;jettySize=auto;html=1;" parent="kHNyVM9_loPENXg7Zpsd-1" source="kHNyVM9_loPENXg7Zpsd-6" target="kHNyVM9_loPENXg7Zpsd-10" edge="1">
          <mxGeometry relative="1" as="geometry" />
        </mxCell>
        <mxCell id="kHNyVM9_loPENXg7Zpsd-6" value="Exceeded max_iterations?" style="rhombus;whiteSpace=wrap;html=1;" parent="kHNyVM9_loPENXg7Zpsd-1" vertex="1">
          <mxGeometry x="40" y="150" width="130" height="70" as="geometry" />
        </mxCell>
        <mxCell id="kHNyVM9_loPENXg7Zpsd-7" value="return path" style="whiteSpace=wrap;html=1;" parent="kHNyVM9_loPENXg7Zpsd-1" vertex="1">
          <mxGeometry x="45" y="450" width="120" height="60" as="geometry" />
        </mxCell>
        <mxCell id="kHNyVM9_loPENXg7Zpsd-10" value="&lt;div align=&quot;left&quot;&gt;attractive_g_x, attractive_g_y = self.attractive_g(curr_pos)&lt;/div&gt;&lt;div align=&quot;left&quot;&gt;&lt;div&gt;attractive_c_x, attractive_c_y = self.attractive_c(curr_pos)&lt;br&gt;&lt;div&gt;repulsive_x, repulsive_y = self.repulsive(curr_pos)&lt;/div&gt;&lt;/div&gt;&lt;/div&gt;" style="whiteSpace=wrap;html=1;align=left;" parent="kHNyVM9_loPENXg7Zpsd-1" vertex="1">
          <mxGeometry x="210" y="147.5" width="320" height="75" as="geometry" />
        </mxCell>
        <mxCell id="kHNyVM9_loPENXg7Zpsd-18" value="" style="edgeStyle=orthogonalEdgeStyle;rounded=0;orthogonalLoop=1;jettySize=auto;html=1;" parent="kHNyVM9_loPENXg7Zpsd-1" source="kHNyVM9_loPENXg7Zpsd-16" target="kHNyVM9_loPENXg7Zpsd-17" edge="1">
          <mxGeometry relative="1" as="geometry" />
        </mxCell>
        <mxCell id="kHNyVM9_loPENXg7Zpsd-16" value="&lt;div&gt;total_x = attractive_g_x + attractive_c_x + repulsive_x&lt;/div&gt;&lt;div&gt;total_y = attractive_g_y + attractive_c_y + repulsive_y&lt;/div&gt;" style="rounded=0;whiteSpace=wrap;html=1;align=left;" parent="kHNyVM9_loPENXg7Zpsd-1" vertex="1">
          <mxGeometry x="210" y="250" width="320" height="70" as="geometry" />
        </mxCell>
        <mxCell id="kHNyVM9_loPENXg7Zpsd-14" style="edgeStyle=orthogonalEdgeStyle;rounded=0;orthogonalLoop=1;jettySize=auto;html=1;" parent="kHNyVM9_loPENXg7Zpsd-1" source="kHNyVM9_loPENXg7Zpsd-10" target="kHNyVM9_loPENXg7Zpsd-16" edge="1">
          <mxGeometry relative="1" as="geometry">
            <mxPoint x="435" y="250" as="targetPoint" />
          </mxGeometry>
        </mxCell>
        <mxCell id="kHNyVM9_loPENXg7Zpsd-23" value="" style="edgeStyle=orthogonalEdgeStyle;rounded=0;orthogonalLoop=1;jettySize=auto;html=1;" parent="kHNyVM9_loPENXg7Zpsd-1" source="kHNyVM9_loPENXg7Zpsd-17" target="kHNyVM9_loPENXg7Zpsd-22" edge="1">
          <mxGeometry relative="1" as="geometry" />
        </mxCell>
        <mxCell id="kHNyVM9_loPENXg7Zpsd-17" value="&lt;div&gt;next_pos_x = curr_pos[0] + step_size* total_x&lt;br&gt;&lt;/div&gt;&lt;div&gt;next_pos_y = curr_pos[1] + step_size* total_y&lt;/div&gt;&lt;div&gt;next_pos = [next_pos_x, next_pos_y]]&lt;br&gt;&lt;/div&gt;" style="whiteSpace=wrap;html=1;align=left;rounded=0;" parent="kHNyVM9_loPENXg7Zpsd-1" vertex="1">
          <mxGeometry x="210" y="350" width="320" height="60" as="geometry" />
        </mxCell>
        <mxCell id="kHNyVM9_loPENXg7Zpsd-26" style="edgeStyle=orthogonalEdgeStyle;rounded=0;orthogonalLoop=1;jettySize=auto;html=1;" parent="kHNyVM9_loPENXg7Zpsd-1" source="kHNyVM9_loPENXg7Zpsd-22" target="kHNyVM9_loPENXg7Zpsd-7" edge="1">
          <mxGeometry relative="1" as="geometry" />
        </mxCell>
        <mxCell id="kHNyVM9_loPENXg7Zpsd-28" style="edgeStyle=orthogonalEdgeStyle;rounded=0;orthogonalLoop=1;jettySize=auto;html=1;entryX=0.5;entryY=0;entryDx=0;entryDy=0;" parent="kHNyVM9_loPENXg7Zpsd-1" source="kHNyVM9_loPENXg7Zpsd-22" target="kHNyVM9_loPENXg7Zpsd-6" edge="1">
          <mxGeometry relative="1" as="geometry">
            <mxPoint x="621" y="130" as="targetPoint" />
            <Array as="points">
              <mxPoint x="550" y="480" />
              <mxPoint x="550" y="130" />
              <mxPoint x="105" y="130" />
            </Array>
          </mxGeometry>
        </mxCell>
        <mxCell id="kHNyVM9_loPENXg7Zpsd-22" value="&lt;div align=&quot;center&quot;&gt;distance to self.goal &amp;lt; self.goal_thresh?&lt;/div&gt;" style="rhombus;whiteSpace=wrap;html=1;align=center;rounded=0;" parent="kHNyVM9_loPENXg7Zpsd-1" vertex="1">
          <mxGeometry x="250.5" y="440" width="239" height="80" as="geometry" />
        </mxCell>
      </root>
    </mxGraphModel>
  </diagram>
  <diagram id="0Twk2z6Dk1yMLnBeguCC" name="attractive_g()">
    <mxGraphModel dx="1789" dy="4928" grid="1" gridSize="10" guides="1" tooltips="1" connect="1" arrows="1" fold="1" page="1" pageScale="1" pageWidth="850" pageHeight="1100" math="0" shadow="0">
      <root>
        <mxCell id="0" />
        <mxCell id="1" parent="0" />
        <mxCell id="RSsxnortNvIZ_sqnA9rF-1" value="Method: attractive_g()" style="swimlane;whiteSpace=wrap;html=1;" vertex="1" parent="1">
          <mxGeometry x="-810" y="-3600" width="350" height="310" as="geometry" />
        </mxCell>
        <mxCell id="RSsxnortNvIZ_sqnA9rF-3" value="&lt;div&gt;&lt;font color=&quot;#0066cc&quot;&gt;/*Attractive goal is constant*/&lt;/font&gt;&lt;/div&gt;&lt;div&gt;attractive_g = self.k_att&lt;br&gt;&lt;/div&gt;" style="rounded=0;whiteSpace=wrap;html=1;" vertex="1" parent="RSsxnortNvIZ_sqnA9rF-1">
          <mxGeometry x="70" y="40" width="210" height="80" as="geometry" />
        </mxCell>
        <mxCell id="RSsxnortNvIZ_sqnA9rF-7" value="return force_g_x, force_g_y" style="whiteSpace=wrap;html=1;" vertex="1" parent="RSsxnortNvIZ_sqnA9rF-1">
          <mxGeometry x="55" y="230" width="240" height="60" as="geometry" />
        </mxCell>
        <mxCell id="hBCKLx01T6dorzfEYdMu-2" style="edgeStyle=orthogonalEdgeStyle;rounded=0;orthogonalLoop=1;jettySize=auto;html=1;entryX=0.5;entryY=0;entryDx=0;entryDy=0;" edge="1" parent="RSsxnortNvIZ_sqnA9rF-1" source="fUU3xXCS2suQqjS0ujaD-1" target="RSsxnortNvIZ_sqnA9rF-7">
          <mxGeometry relative="1" as="geometry" />
        </mxCell>
        <mxCell id="fUU3xXCS2suQqjS0ujaD-1" value="&lt;div&gt;&lt;font color=&quot;#0066cc&quot;&gt;/*Force is uniform, regardless of position*/&lt;/font&gt;&lt;/div&gt;&lt;div&gt;force_g_x = attractive_g*cos(self.theta_start_goal)&lt;/div&gt;&lt;div&gt;&lt;div&gt;force_g_y = attractive_g*sin(self.theta_start_goal)&lt;/div&gt;&lt;/div&gt;" style="rounded=0;whiteSpace=wrap;html=1;" vertex="1" parent="RSsxnortNvIZ_sqnA9rF-1">
          <mxGeometry x="15" y="140" width="320" height="60" as="geometry" />
        </mxCell>
        <mxCell id="RSsxnortNvIZ_sqnA9rF-2" value="" style="edgeStyle=orthogonalEdgeStyle;rounded=0;orthogonalLoop=1;jettySize=auto;html=1;entryX=0.5;entryY=0;entryDx=0;entryDy=0;" edge="1" parent="RSsxnortNvIZ_sqnA9rF-1" source="RSsxnortNvIZ_sqnA9rF-3" target="fUU3xXCS2suQqjS0ujaD-1">
          <mxGeometry relative="1" as="geometry">
            <mxPoint x="105" y="150" as="targetPoint" />
          </mxGeometry>
        </mxCell>
      </root>
    </mxGraphModel>
  </diagram>
  <diagram id="7kcc29lMQF4x_ugg2SBn" name="attractive_c()">
    <mxGraphModel dx="2212" dy="2966" grid="1" gridSize="10" guides="1" tooltips="1" connect="1" arrows="1" fold="1" page="1" pageScale="1" pageWidth="850" pageHeight="1100" math="0" shadow="0">
      <root>
        <mxCell id="0" />
        <mxCell id="1" parent="0" />
        <mxCell id="S8lKCH7KZh8T4Yx_NQ6G-1" value="&lt;div&gt;Method: attractive_c()&lt;/div&gt;" style="swimlane;whiteSpace=wrap;html=1;" vertex="1" parent="1">
          <mxGeometry x="-810" y="-1140" width="570" height="540" as="geometry" />
        </mxCell>
        <mxCell id="S8lKCH7KZh8T4Yx_NQ6G-2" value="" style="edgeStyle=orthogonalEdgeStyle;rounded=0;orthogonalLoop=1;jettySize=auto;html=1;entryX=0.5;entryY=0;entryDx=0;entryDy=0;" edge="1" parent="S8lKCH7KZh8T4Yx_NQ6G-1" source="S8lKCH7KZh8T4Yx_NQ6G-3" target="S8lKCH7KZh8T4Yx_NQ6G-6">
          <mxGeometry relative="1" as="geometry">
            <mxPoint x="165" y="210" as="targetPoint" />
          </mxGeometry>
        </mxCell>
        <mxCell id="S8lKCH7KZh8T4Yx_NQ6G-3" value="&lt;div&gt;path = [ ]&lt;br&gt;&lt;/div&gt;&lt;div&gt;&lt;font color=&quot;#0066cc&quot;&gt;/*Set current position start*/&lt;/font&gt;&lt;/div&gt;&lt;div&gt;curr_pos = self.start&lt;/div&gt;&lt;div&gt;&lt;font color=&quot;#0066cc&quot;&gt;/*Add first point to the path*/&lt;/font&gt;&lt;/div&gt;&lt;div&gt;path.append(current_position)&lt;br&gt;&lt;/div&gt;" style="rounded=0;whiteSpace=wrap;html=1;" vertex="1" parent="S8lKCH7KZh8T4Yx_NQ6G-1">
          <mxGeometry x="10" y="30" width="190" height="80" as="geometry" />
        </mxCell>
        <mxCell id="S8lKCH7KZh8T4Yx_NQ6G-4" value="" style="edgeStyle=orthogonalEdgeStyle;rounded=0;orthogonalLoop=1;jettySize=auto;html=1;entryX=0.5;entryY=0;entryDx=0;entryDy=0;exitX=0.5;exitY=1;exitDx=0;exitDy=0;" edge="1" parent="S8lKCH7KZh8T4Yx_NQ6G-1" source="S8lKCH7KZh8T4Yx_NQ6G-6" target="S8lKCH7KZh8T4Yx_NQ6G-7">
          <mxGeometry relative="1" as="geometry">
            <mxPoint x="124.8" y="270" as="sourcePoint" />
            <mxPoint x="124.8" y="330" as="targetPoint" />
          </mxGeometry>
        </mxCell>
        <mxCell id="S8lKCH7KZh8T4Yx_NQ6G-5" value="" style="edgeStyle=orthogonalEdgeStyle;rounded=0;orthogonalLoop=1;jettySize=auto;html=1;" edge="1" parent="S8lKCH7KZh8T4Yx_NQ6G-1" source="S8lKCH7KZh8T4Yx_NQ6G-6" target="S8lKCH7KZh8T4Yx_NQ6G-8">
          <mxGeometry relative="1" as="geometry" />
        </mxCell>
        <mxCell id="S8lKCH7KZh8T4Yx_NQ6G-6" value="Exceeded max_iterations?" style="rhombus;whiteSpace=wrap;html=1;" vertex="1" parent="S8lKCH7KZh8T4Yx_NQ6G-1">
          <mxGeometry x="40" y="150" width="130" height="70" as="geometry" />
        </mxCell>
        <mxCell id="S8lKCH7KZh8T4Yx_NQ6G-7" value="return path" style="whiteSpace=wrap;html=1;" vertex="1" parent="S8lKCH7KZh8T4Yx_NQ6G-1">
          <mxGeometry x="45" y="450" width="120" height="60" as="geometry" />
        </mxCell>
        <mxCell id="S8lKCH7KZh8T4Yx_NQ6G-8" value="&lt;div align=&quot;left&quot;&gt;attractive_g_x, attractive_g_y = self.attractive_g(curr_pos)&lt;/div&gt;&lt;div align=&quot;left&quot;&gt;&lt;div&gt;attractive_c_x, attractive_c_y = self.attractive_c(curr_pos)&lt;br&gt;&lt;div&gt;repulsive_x, repulsive_y = self.repulsive(curr_pos)&lt;/div&gt;&lt;/div&gt;&lt;/div&gt;" style="whiteSpace=wrap;html=1;align=left;" vertex="1" parent="S8lKCH7KZh8T4Yx_NQ6G-1">
          <mxGeometry x="210" y="147.5" width="320" height="75" as="geometry" />
        </mxCell>
        <mxCell id="S8lKCH7KZh8T4Yx_NQ6G-9" value="" style="edgeStyle=orthogonalEdgeStyle;rounded=0;orthogonalLoop=1;jettySize=auto;html=1;" edge="1" parent="S8lKCH7KZh8T4Yx_NQ6G-1" source="S8lKCH7KZh8T4Yx_NQ6G-10" target="S8lKCH7KZh8T4Yx_NQ6G-13">
          <mxGeometry relative="1" as="geometry" />
        </mxCell>
        <mxCell id="S8lKCH7KZh8T4Yx_NQ6G-10" value="&lt;div&gt;total_x = attractive_g_x + attractive_c_x + repulsive_x&lt;/div&gt;&lt;div&gt;total_y = attractive_g_y + attractive_c_y + repulsive_y&lt;/div&gt;" style="rounded=0;whiteSpace=wrap;html=1;align=left;" vertex="1" parent="S8lKCH7KZh8T4Yx_NQ6G-1">
          <mxGeometry x="210" y="250" width="320" height="70" as="geometry" />
        </mxCell>
        <mxCell id="S8lKCH7KZh8T4Yx_NQ6G-11" style="edgeStyle=orthogonalEdgeStyle;rounded=0;orthogonalLoop=1;jettySize=auto;html=1;" edge="1" parent="S8lKCH7KZh8T4Yx_NQ6G-1" source="S8lKCH7KZh8T4Yx_NQ6G-8" target="S8lKCH7KZh8T4Yx_NQ6G-10">
          <mxGeometry relative="1" as="geometry">
            <mxPoint x="435" y="250" as="targetPoint" />
          </mxGeometry>
        </mxCell>
        <mxCell id="S8lKCH7KZh8T4Yx_NQ6G-12" value="" style="edgeStyle=orthogonalEdgeStyle;rounded=0;orthogonalLoop=1;jettySize=auto;html=1;" edge="1" parent="S8lKCH7KZh8T4Yx_NQ6G-1" source="S8lKCH7KZh8T4Yx_NQ6G-13" target="S8lKCH7KZh8T4Yx_NQ6G-16">
          <mxGeometry relative="1" as="geometry" />
        </mxCell>
        <mxCell id="S8lKCH7KZh8T4Yx_NQ6G-13" value="&lt;div&gt;next_pos_x = curr_pos[0] + step_size* total_x&lt;br&gt;&lt;/div&gt;&lt;div&gt;next_pos_y = curr_pos[1] + step_size* total_y&lt;/div&gt;&lt;div&gt;next_pos = [next_pos_x, next_pos_y]]&lt;br&gt;&lt;/div&gt;" style="whiteSpace=wrap;html=1;align=left;rounded=0;" vertex="1" parent="S8lKCH7KZh8T4Yx_NQ6G-1">
          <mxGeometry x="210" y="350" width="320" height="60" as="geometry" />
        </mxCell>
        <mxCell id="S8lKCH7KZh8T4Yx_NQ6G-14" style="edgeStyle=orthogonalEdgeStyle;rounded=0;orthogonalLoop=1;jettySize=auto;html=1;" edge="1" parent="S8lKCH7KZh8T4Yx_NQ6G-1" source="S8lKCH7KZh8T4Yx_NQ6G-16" target="S8lKCH7KZh8T4Yx_NQ6G-7">
          <mxGeometry relative="1" as="geometry" />
        </mxCell>
        <mxCell id="S8lKCH7KZh8T4Yx_NQ6G-15" style="edgeStyle=orthogonalEdgeStyle;rounded=0;orthogonalLoop=1;jettySize=auto;html=1;entryX=0.5;entryY=0;entryDx=0;entryDy=0;" edge="1" parent="S8lKCH7KZh8T4Yx_NQ6G-1" source="S8lKCH7KZh8T4Yx_NQ6G-16" target="S8lKCH7KZh8T4Yx_NQ6G-6">
          <mxGeometry relative="1" as="geometry">
            <mxPoint x="621" y="130" as="targetPoint" />
            <Array as="points">
              <mxPoint x="550" y="480" />
              <mxPoint x="550" y="130" />
              <mxPoint x="105" y="130" />
            </Array>
          </mxGeometry>
        </mxCell>
        <mxCell id="S8lKCH7KZh8T4Yx_NQ6G-16" value="&lt;div align=&quot;center&quot;&gt;distance to self.goal &amp;lt; self.goal_thresh?&lt;/div&gt;" style="rhombus;whiteSpace=wrap;html=1;align=center;rounded=0;" vertex="1" parent="S8lKCH7KZh8T4Yx_NQ6G-1">
          <mxGeometry x="250.5" y="440" width="239" height="80" as="geometry" />
        </mxCell>
      </root>
    </mxGraphModel>
  </diagram>
  <diagram id="-GVi-qARS28JKBzpi0vY" name="repulsive()">
    <mxGraphModel dx="2212" dy="2966" grid="1" gridSize="10" guides="1" tooltips="1" connect="1" arrows="1" fold="1" page="1" pageScale="1" pageWidth="850" pageHeight="1100" math="0" shadow="0">
      <root>
        <mxCell id="0" />
        <mxCell id="1" parent="0" />
        <mxCell id="EB92Dirz8BHHXHKVZ7My-1" value="Method: repulsive()" style="swimlane;whiteSpace=wrap;html=1;" vertex="1" parent="1">
          <mxGeometry x="-810" y="-1140" width="570" height="540" as="geometry" />
        </mxCell>
        <mxCell id="EB92Dirz8BHHXHKVZ7My-2" value="" style="edgeStyle=orthogonalEdgeStyle;rounded=0;orthogonalLoop=1;jettySize=auto;html=1;entryX=0.5;entryY=0;entryDx=0;entryDy=0;" edge="1" parent="EB92Dirz8BHHXHKVZ7My-1" source="EB92Dirz8BHHXHKVZ7My-3" target="EB92Dirz8BHHXHKVZ7My-6">
          <mxGeometry relative="1" as="geometry">
            <mxPoint x="165" y="210" as="targetPoint" />
          </mxGeometry>
        </mxCell>
        <mxCell id="EB92Dirz8BHHXHKVZ7My-3" value="&lt;div&gt;path = [ ]&lt;br&gt;&lt;/div&gt;&lt;div&gt;&lt;font color=&quot;#0066cc&quot;&gt;/*Set current position start*/&lt;/font&gt;&lt;/div&gt;&lt;div&gt;curr_pos = self.start&lt;/div&gt;&lt;div&gt;&lt;font color=&quot;#0066cc&quot;&gt;/*Add first point to the path*/&lt;/font&gt;&lt;/div&gt;&lt;div&gt;path.append(current_position)&lt;br&gt;&lt;/div&gt;" style="rounded=0;whiteSpace=wrap;html=1;" vertex="1" parent="EB92Dirz8BHHXHKVZ7My-1">
          <mxGeometry x="10" y="30" width="190" height="80" as="geometry" />
        </mxCell>
        <mxCell id="EB92Dirz8BHHXHKVZ7My-4" value="" style="edgeStyle=orthogonalEdgeStyle;rounded=0;orthogonalLoop=1;jettySize=auto;html=1;entryX=0.5;entryY=0;entryDx=0;entryDy=0;exitX=0.5;exitY=1;exitDx=0;exitDy=0;" edge="1" parent="EB92Dirz8BHHXHKVZ7My-1" source="EB92Dirz8BHHXHKVZ7My-6" target="EB92Dirz8BHHXHKVZ7My-7">
          <mxGeometry relative="1" as="geometry">
            <mxPoint x="124.8" y="270" as="sourcePoint" />
            <mxPoint x="124.8" y="330" as="targetPoint" />
          </mxGeometry>
        </mxCell>
        <mxCell id="EB92Dirz8BHHXHKVZ7My-5" value="" style="edgeStyle=orthogonalEdgeStyle;rounded=0;orthogonalLoop=1;jettySize=auto;html=1;" edge="1" parent="EB92Dirz8BHHXHKVZ7My-1" source="EB92Dirz8BHHXHKVZ7My-6" target="EB92Dirz8BHHXHKVZ7My-8">
          <mxGeometry relative="1" as="geometry" />
        </mxCell>
        <mxCell id="EB92Dirz8BHHXHKVZ7My-6" value="Exceeded max_iterations?" style="rhombus;whiteSpace=wrap;html=1;" vertex="1" parent="EB92Dirz8BHHXHKVZ7My-1">
          <mxGeometry x="40" y="150" width="130" height="70" as="geometry" />
        </mxCell>
        <mxCell id="EB92Dirz8BHHXHKVZ7My-7" value="return path" style="whiteSpace=wrap;html=1;" vertex="1" parent="EB92Dirz8BHHXHKVZ7My-1">
          <mxGeometry x="45" y="450" width="120" height="60" as="geometry" />
        </mxCell>
        <mxCell id="EB92Dirz8BHHXHKVZ7My-8" value="&lt;div align=&quot;left&quot;&gt;attractive_g_x, attractive_g_y = self.attractive_g(curr_pos)&lt;/div&gt;&lt;div align=&quot;left&quot;&gt;&lt;div&gt;attractive_c_x, attractive_c_y = self.attractive_c(curr_pos)&lt;br&gt;&lt;div&gt;repulsive_x, repulsive_y = self.repulsive(curr_pos)&lt;/div&gt;&lt;/div&gt;&lt;/div&gt;" style="whiteSpace=wrap;html=1;align=left;" vertex="1" parent="EB92Dirz8BHHXHKVZ7My-1">
          <mxGeometry x="210" y="147.5" width="320" height="75" as="geometry" />
        </mxCell>
        <mxCell id="EB92Dirz8BHHXHKVZ7My-9" value="" style="edgeStyle=orthogonalEdgeStyle;rounded=0;orthogonalLoop=1;jettySize=auto;html=1;" edge="1" parent="EB92Dirz8BHHXHKVZ7My-1" source="EB92Dirz8BHHXHKVZ7My-10" target="EB92Dirz8BHHXHKVZ7My-13">
          <mxGeometry relative="1" as="geometry" />
        </mxCell>
        <mxCell id="EB92Dirz8BHHXHKVZ7My-10" value="&lt;div&gt;total_x = attractive_g_x + attractive_c_x + repulsive_x&lt;/div&gt;&lt;div&gt;total_y = attractive_g_y + attractive_c_y + repulsive_y&lt;/div&gt;" style="rounded=0;whiteSpace=wrap;html=1;align=left;" vertex="1" parent="EB92Dirz8BHHXHKVZ7My-1">
          <mxGeometry x="210" y="250" width="320" height="70" as="geometry" />
        </mxCell>
        <mxCell id="EB92Dirz8BHHXHKVZ7My-11" style="edgeStyle=orthogonalEdgeStyle;rounded=0;orthogonalLoop=1;jettySize=auto;html=1;" edge="1" parent="EB92Dirz8BHHXHKVZ7My-1" source="EB92Dirz8BHHXHKVZ7My-8" target="EB92Dirz8BHHXHKVZ7My-10">
          <mxGeometry relative="1" as="geometry">
            <mxPoint x="435" y="250" as="targetPoint" />
          </mxGeometry>
        </mxCell>
        <mxCell id="EB92Dirz8BHHXHKVZ7My-12" value="" style="edgeStyle=orthogonalEdgeStyle;rounded=0;orthogonalLoop=1;jettySize=auto;html=1;" edge="1" parent="EB92Dirz8BHHXHKVZ7My-1" source="EB92Dirz8BHHXHKVZ7My-13" target="EB92Dirz8BHHXHKVZ7My-16">
          <mxGeometry relative="1" as="geometry" />
        </mxCell>
        <mxCell id="EB92Dirz8BHHXHKVZ7My-13" value="&lt;div&gt;next_pos_x = curr_pos[0] + step_size* total_x&lt;br&gt;&lt;/div&gt;&lt;div&gt;next_pos_y = curr_pos[1] + step_size* total_y&lt;/div&gt;&lt;div&gt;next_pos = [next_pos_x, next_pos_y]]&lt;br&gt;&lt;/div&gt;" style="whiteSpace=wrap;html=1;align=left;rounded=0;" vertex="1" parent="EB92Dirz8BHHXHKVZ7My-1">
          <mxGeometry x="210" y="350" width="320" height="60" as="geometry" />
        </mxCell>
        <mxCell id="EB92Dirz8BHHXHKVZ7My-14" style="edgeStyle=orthogonalEdgeStyle;rounded=0;orthogonalLoop=1;jettySize=auto;html=1;" edge="1" parent="EB92Dirz8BHHXHKVZ7My-1" source="EB92Dirz8BHHXHKVZ7My-16" target="EB92Dirz8BHHXHKVZ7My-7">
          <mxGeometry relative="1" as="geometry" />
        </mxCell>
        <mxCell id="EB92Dirz8BHHXHKVZ7My-15" style="edgeStyle=orthogonalEdgeStyle;rounded=0;orthogonalLoop=1;jettySize=auto;html=1;entryX=0.5;entryY=0;entryDx=0;entryDy=0;" edge="1" parent="EB92Dirz8BHHXHKVZ7My-1" source="EB92Dirz8BHHXHKVZ7My-16" target="EB92Dirz8BHHXHKVZ7My-6">
          <mxGeometry relative="1" as="geometry">
            <mxPoint x="621" y="130" as="targetPoint" />
            <Array as="points">
              <mxPoint x="550" y="480" />
              <mxPoint x="550" y="130" />
              <mxPoint x="105" y="130" />
            </Array>
          </mxGeometry>
        </mxCell>
        <mxCell id="EB92Dirz8BHHXHKVZ7My-16" value="&lt;div align=&quot;center&quot;&gt;distance to self.goal &amp;lt; self.goal_thresh?&lt;/div&gt;" style="rhombus;whiteSpace=wrap;html=1;align=center;rounded=0;" vertex="1" parent="EB92Dirz8BHHXHKVZ7My-1">
          <mxGeometry x="250.5" y="440" width="239" height="80" as="geometry" />
        </mxCell>
      </root>
    </mxGraphModel>
  </diagram>
</mxfile>
